<?xml version="1.0" encoding="UTF-8" standalone="no"?>
<svg
        version="1.1"
        viewBox="56 196 670.01965 400.8819"
        width="670.01965"
        height="400.8819"
        id="svg47"
        sodipodi:docname="sigir2025-logo.svg"
        inkscape:export-filename="sigir2025-logo-by.svg"
        inkscape:export-xdpi="500"
        inkscape:export-ydpi="500"
        xmlns:inkscape="http://www.inkscape.org/namespaces/inkscape"
        xmlns:sodipodi="http://sodipodi.sourceforge.net/DTD/sodipodi-0.dtd"
        xmlns="http://www.w3.org/2000/svg"
        xmlns:svg="http://www.w3.org/2000/svg">
    <sodipodi:namedview
            id="namedview49"
            pagecolor="#ffffff"
            bordercolor="#666666"
            borderopacity="1.0"
            inkscape:showpageshadow="2"
            inkscape:pageopacity="0.0"
            inkscape:pagecheckerboard="0"
            inkscape:deskcolor="#d1d1d1"
            showgrid="false"/>
    <defs
            id="defs18"/>
    <g
            id="Canvas_1"
            stroke-opacity="1"
            stroke-dasharray="none"
            stroke="none"
            fill-opacity="1"
            fill="none"
            transform="translate(-4.74435,-0.38104999)">
        <title
                id="title20">Canvas 1
        </title>
        <g
                id="Canvas_1_Layer_1">
            <title
                    id="title22">Layer 1
            </title>
            <g
                    id="Graphic_2"
                    style="fill:#ffbb00;fill-opacity:1">
                <path
                        d="m 611.89265,327.93815 c 1.716,-5.916 2.654,-12.163 2.654,-18.633 0,-36.884 -29.9,-66.784 -66.784,-66.784 -36.884,0 -66.784,29.9 -66.784,66.784 0,6.868 1.04,13.493 2.965,19.729 28.578,-1.34 69.781,-1.134 114.115,-1.134 4.667,0 9.276,0.014 13.834,0.038 z"
                        fill="#35607f"
                        id="path24"
                        style="fill:#ffbb00;fill-opacity:1"/>
            </g>
            <g
                    id="Graphic_3"
                    style="fill:#ffffff;fill-opacity:1">
                <text
                        transform="translate(280.67635,478.00095)"
                        fill="#893f27"
                        id="text29"
                        style="fill:#ffffff;fill-opacity:1">
                    <tspan
                            font-family="Helvetica"
                            font-size="80px"
                            fill="#893f27"
                            x="0"
                            y="78"
                            id="tspan27"
                            style="fill:#396382;fill-opacity:1">Padova
                    </tspan>
                </text>
            </g>
            <g
                    id="Graphic_4"
                    style="fill:#396382;fill-opacity:1">
                <text
                        transform="translate(379.60535,568.26295)"
                        fill="#893f27"
                        id="text34"
                        style="fill:#396382;fill-opacity:1">
                    <tspan
                            font-family="Helvetica"
                            font-size="30px"
                            fill="#893f27"
                            x="0"
                            y="29"
                            id="tspan32"
                            style="fill:#396382;fill-opacity:1">ITALY
                    </tspan>
                </text>
            </g>
            <g
                    id="Graphic_5"
                    style="fill:#396382;fill-opacity:1">
                <path
                        d="m 617.93205,327.96805 c 0.004,-0.557 -0.442,-1.015 -0.999,-1.023 -21.391,-0.331 -48.04,-0.218 -73.806,-0.107 -8.081,0.034 -16.1,0.066 -23.941,0.086 l -2.514,-16.212 -0.675,-1 v -8.381 l 0.338,-0.563 -0.507,-0.437 v -0.97 h -0.401 v -0.657 h -0.59 v -0.656 h 0.126 v -0.282 h -0.13 l -0.991,-36.837 h -0.458 l -0.97,36.837 h -0.13 v 0.282 h 0.127 v 0.656 h -0.57 v 0.657 h -0.338 v 0.992 l -0.59,0.634 0.611,0.573 v 7.288 l -16.625,-3.702 h -4.683 -4.684 l -16.625,3.702 v -7.288 l 0.611,-0.573 -0.59,-0.634 v -0.992 h -0.338 v -0.657 h -0.57 v -0.656 h 0.127 v -0.282 h -0.13 l -0.97,-36.837 h -0.459 l -0.99,36.837 h -0.13 v 0.282 h 0.126 v 0.656 h -0.591 v 0.657 h -0.401 v 0.97 l -0.506,0.437 0.338,0.563 v 8.381 l -0.675,1 -2.537,16.374 c -7.345,0.045 -14.646,0.098 -21.84,0.166 l -4.892,-31.545 -1.348,-1.996 v -16.721 l 0.674,-1.123 -1.01,-0.873 v -1.935 h -0.8 v -1.309 h -1.178 v -1.311 h 0.251 v -0.561 h -0.259 l -1.976,-73.497 h -0.916 l -1.934,73.497 h -0.26 v 0.561 h 0.253 v 1.311 h -1.137 v 1.309 h -0.673 v 1.979 l -1.179,1.265 1.221,1.144 v 14.542 l -33.17,-7.387 h -9.344 -9.346 l -33.17,7.387 v -14.542 l 1.22,-1.144 -1.178,-1.265 v -1.979 h -0.673 v -1.309 h -1.137 v -1.311 h 0.252 v -0.561 h -0.259 l -1.935,-73.497 h -0.915 l -1.976,73.497 h -0.26 v 0.561 h 0.252 v 1.311 h -1.179 v 1.309 h -0.8 v 1.935 l -1.009,0.873 0.673,1.123 v 16.721 l -1.347,1.996 -5.244,33.845 c -5.489,0.182 -10.874,0.37 -16.052,0.569 -83.484,3.213 -83.484,6.869 -83.484,8.628 0,1.314 0,4.049 38.443,6.864 26.422,1.933 62.762,3.17 102.327,3.482 5.208,0.041 49.049,0.047 81.059,0.051 18.329,0.004 32.815,0.006 33.271,0.014 h 0.022 c 0.551,0 1.003,-0.44 1.015,-0.993 0.012,-0.559 -0.433,-1.025 -0.994,-1.037 -46.082,-1 -129.836,-2.814 -140.641,-7.657 -0.542,-0.243 -0.521,-1.034 0.031,-1.252 9.757,-3.87 77.583,-8.343 242.828,-9.159 11.609,-0.057 23.432,-0.087 35.418,-0.087 0.557,0 1.011,-0.45 1.015,-1.007 m -202.637,-0.443 c -23.696,0.313 -46.254,0.749 -67.15,1.301 v -17.521 h -0.031 c 11.954,-13.6 33.591,-13.352 33.591,-13.352 21.636,-0.248 33.59,13.352 33.59,13.352 z m 91.756,-0.581 c -0.504,0 -1.026,10e-4 -1.528,10e-4 -10.814,0 -21.53,0.026 -32.127,0.073 v -8.488 h -0.016 c 5.991,-6.817 16.836,-6.692 16.836,-6.692 10.844,-0.125 16.835,6.692 16.835,6.692 z m 45.566,-31.667 c 0.576,-0.01 0.772,-0.102 1.252,-0.398 0.024,-0.125 -0.007,-0.237 -0.155,-0.317 -0.362,-0.26 -0.833,-0.209 -1.208,-0.255 -0.372,-0.047 -0.732,-0.153 -1.207,-0.256 -0.202,-0.043 -0.522,-0.021 -0.738,-0.092 -0.688,-0.227 -1.317,-0.697 -2.001,-0.833 -0.698,-0.14 -1.535,0.08 -2.311,-0.109 -0.437,-0.266 0.004,-0.763 -0.414,-1.035 -0.558,-0.047 -1.143,-0.195 -1.762,-0.467 -0.126,0.438 0.536,0.67 0.631,1.049 -0.297,0.049 -0.648,-0.113 -0.991,-0.241 -0.929,0.258 -1.908,-0.012 -3.013,-0.069 -0.292,-0.016 -0.721,-0.121 -0.97,0.11 1.717,1.374 3.736,1.566 5.358,1.669 0.518,0.791 0.869,1.627 1.414,2.412 0.236,0.271 -0.168,0.709 0.245,0.935 0.43,-0.85 0.518,-1.61 0.46,-2.331 0.925,-0.803 2.317,-0.154 3.499,0.013 0.214,0.029 0.469,0.059 0.738,0.092 0.312,0.04 0.791,0.129 1.173,0.123 m -13.104,-11.009 c 0.029,-0.589 -0.721,-0.966 -1.301,-1.359 -0.585,-0.397 -1.275,-0.88 -1.912,-1.138 -0.602,-0.242 -1.197,-0.223 -1.682,-0.359 -0.309,0.219 -0.427,0.617 -0.656,0.873 -0.755,0.845 -1.701,1.132 -3.02,0.534 -0.238,-0.125 -0.337,0.129 -0.544,0.084 -0.149,0.063 -0.386,-0.113 -0.475,0.117 0.13,0.191 0.618,0.173 0.597,0.527 -0.542,0.088 -1.222,-0.198 -1.927,-0.555 -0.264,-0.017 -0.623,0.151 -0.911,0.334 -0.612,0.388 -1.393,1.305 -1.915,2.138 -0.363,0.579 -0.751,1.255 -0.695,1.863 0.709,-0.026 1.243,-0.665 1.775,-1.11 0.562,-0.472 1.087,-0.913 1.706,-1.143 1.018,0.112 2.091,0.378 3.008,0.218 0.517,0.326 -0.029,1.044 -0.055,1.569 1.222,0.808 2.49,0.434 3.111,-0.911 -0.304,-0.167 -1.087,-0.472 -1.388,-0.812 0.047,-0.218 0.654,-0.438 0.969,-0.643 0.088,-0.057 0.163,-0.143 0.267,-0.212 0.433,-0.288 1.06,-0.774 1.647,-0.835 0.635,0.29 1.275,0.445 1.826,0.593 0.488,0.134 1.072,0.454 1.575,0.227 m -39.634,-10.231 c -0.538,-1.609 -1.69,-3.191 -2.767,-4.98 -0.578,-0.959 -1.264,-2.141 -1.983,-3.227 -0.86,-1.298 -1.472,-2.562 -2.594,-3.07 -1.684,-0.761 -3.643,0.714 -5.582,-0.171 -0.567,-0.775 -0.229,-1.786 -0.525,-2.631 -1.861,-2.256 -4.087,-6.373 -7.752,-6.609 -0.975,0.594 -1.181,2.215 -0.696,2.951 1.533,0.877 2.596,-0.044 3.899,-0.041 1.17,1.486 1.675,3.146 1.161,5.072 -0.483,0.437 -1.145,0.185 -1.795,-0.019 -0.679,0.728 -1.747,-0.029 -2.361,0.942 0.577,0.544 0.907,0.146 1.46,0.596 1.754,2.823 4.74,3.201 7.26,3.479 1.232,0.136 2.445,0.578 3.289,0.118 0.518,-0.75 -0.342,-0.338 -0.657,-0.643 1.255,-0.387 2.638,-0.293 4.091,0.073 2.354,3.131 4.244,6.384 5.645,9.764 0.694,-0.32 0.043,-1.194 -0.093,-1.604"
                        fill="#893f27"
                        id="path37"
                        style="fill:#396382;fill-opacity:1"/>
            </g>
            <g
                    id="Graphic_6"
                    style="fill:#35607f;fill-opacity:1">
                <text
                        transform="translate(56.58435,328.91995)"
                        fill="#35607f"
                        id="text42"
                        style="fill:#ffffff;fill-opacity:1">
                    <tspan
                            font-family="Helvetica"
                            font-weight="bold"
                            font-size="130px"
                            fill="#35607f"
                            x="0"
                            y="126"
                            id="tspan40"
                            style="fill:#396382;fill-opacity:1">
                        <tspan
                                style="fill:#ffbb00;fill-opacity:1"
                                id="tspan4711">SIGIR
                        </tspan>
                        2025
                    </tspan>
                </text>
            </g>
            sigir2025-logo-yw.svg
        </g>
    </g>
</svg>
